<svg width="50" height="50" viewBox="0 0 50 50" fill="none" xmlns="http://www.w3.org/2000/svg">
<g clip-path="url(#clip0_2_4046)">
<path d="M0.0439453 8.33812C0.0439453 7.9291 0.206429 7.53683 0.495653 7.24761C0.784877 6.95838 1.17715 6.7959 1.58617 6.7959H6.21285C6.55686 6.79599 6.89097 6.9111 7.16203 7.12293C7.4331 7.33475 7.62556 7.63112 7.70881 7.96491L8.95801 12.9648H44.7685C45.0028 12.9649 45.2339 13.0183 45.4445 13.121C45.655 13.2238 45.8394 13.3731 45.9835 13.5578C46.1277 13.7424 46.228 13.9574 46.2767 14.1866C46.3253 14.4157 46.3212 14.653 46.2645 14.8802L41.6378 33.387C41.5545 33.7208 41.3621 34.0171 41.091 34.2289C40.82 34.4408 40.4858 34.5559 40.1418 34.556H12.3818C12.0377 34.5559 11.7036 34.4408 11.4326 34.2289C11.1615 34.0171 10.969 33.7208 10.8858 33.387L5.00991 9.88035H1.58617C1.17715 9.88035 0.784877 9.71787 0.495653 9.42864C0.206429 9.13942 0.0439453 8.74715 0.0439453 8.33812ZM9.72913 16.0493L11.2714 22.2182H15.4662V16.0493H9.72913ZM18.5507 16.0493V22.2182H24.7196V16.0493H18.5507ZM27.804 16.0493V22.2182H33.9729V16.0493H27.804ZM37.0574 16.0493V22.2182H41.2522L42.7945 16.0493H37.0574ZM40.4811 25.3026H37.0574V31.4715H38.9389L40.4811 25.3026ZM33.9729 25.3026H27.804V31.4715H33.9729V25.3026ZM24.7196 25.3026H18.5507V31.4715H24.7196V25.3026ZM15.4662 25.3026H12.0425L13.5847 31.4715H15.4662V25.3026ZM15.4662 40.7249C14.6482 40.7249 13.8636 41.0499 13.2852 41.6283C12.7067 42.2067 12.3818 42.9913 12.3818 43.8093C12.3818 44.6274 12.7067 45.4119 13.2852 45.9904C13.8636 46.5688 14.6482 46.8938 15.4662 46.8938C16.2843 46.8938 17.0688 46.5688 17.6472 45.9904C18.2257 45.4119 18.5507 44.6274 18.5507 43.8093C18.5507 42.9913 18.2257 42.2067 17.6472 41.6283C17.0688 41.0499 16.2843 40.7249 15.4662 40.7249ZM9.2973 43.8093C9.2973 42.1732 9.94724 40.6042 11.1041 39.4473C12.261 38.2904 13.8301 37.6404 15.4662 37.6404C17.1023 37.6404 18.6714 38.2904 19.8283 39.4473C20.9852 40.6042 21.6351 42.1732 21.6351 43.8093C21.6351 45.4454 20.9852 47.0145 19.8283 48.1714C18.6714 49.3283 17.1023 49.9782 15.4662 49.9782C13.8301 49.9782 12.261 49.3283 11.1041 48.1714C9.94724 47.0145 9.2973 45.4454 9.2973 43.8093ZM37.0574 40.7249C36.2393 40.7249 35.4548 41.0499 34.8763 41.6283C34.2979 42.2067 33.9729 42.9913 33.9729 43.8093C33.9729 44.6274 34.2979 45.4119 34.8763 45.9904C35.4548 46.5688 36.2393 46.8938 37.0574 46.8938C37.8754 46.8938 38.66 46.5688 39.2384 45.9904C39.8169 45.4119 40.1418 44.6274 40.1418 43.8093C40.1418 42.9913 39.8169 42.2067 39.2384 41.6283C38.66 41.0499 37.8754 40.7249 37.0574 40.7249ZM30.8885 43.8093C30.8885 42.1732 31.5384 40.6042 32.6953 39.4473C33.8522 38.2904 35.4213 37.6404 37.0574 37.6404C38.6935 37.6404 40.2626 38.2904 41.4195 39.4473C42.5763 40.6042 43.2263 42.1732 43.2263 43.8093C43.2263 45.4454 42.5763 47.0145 41.4195 48.1714C40.2626 49.3283 38.6935 49.9782 37.0574 49.9782C35.4213 49.9782 33.8522 49.3283 32.6953 48.1714C31.5384 47.0145 30.8885 45.4454 30.8885 43.8093Z" fill="black"/>
</g>
<defs>
<clipPath id="clip0_2_4046">
<rect width="49.3512" height="49.3512" fill="white" transform="translate(0.0439453 0.626465)"/>
</clipPath>
</defs>
</svg>
