<svg width="18" height="18" viewBox="0 0 18 18" fill="none" xmlns="http://www.w3.org/2000/svg">
<g clip-path="url(#clip0_631_309)">
<path d="M0.122754 4.2175C0.230895 3.74366 0.496733 3.32058 0.876731 3.01756C1.25673 2.71454 1.72836 2.54953 2.21439 2.54956H15.086C15.572 2.54953 16.0436 2.71454 16.4236 3.01756C16.8036 3.32058 17.0695 3.74366 17.1776 4.2175L8.65018 9.42943L0.122754 4.2175ZM0.0691223 5.44245V13.0624L6.29361 9.24601L0.0691223 5.44245ZM7.32119 9.87564L0.273995 14.1951C0.448112 14.5623 0.72292 14.8724 1.06644 15.0895C1.40995 15.3065 1.80805 15.4215 2.21439 15.4212H15.086C15.4922 15.4212 15.8902 15.306 16.2335 15.0887C16.5768 14.8715 16.8514 14.5612 17.0253 14.1941L9.9781 9.87457L8.65018 10.6866L7.32119 9.87564ZM11.0068 9.24708L17.2312 13.0624V5.44245L11.0068 9.24601V9.24708Z" fill="white"/>
</g>
<defs>
<clipPath id="clip0_631_309">
<rect width="17.1621" height="17.1621" fill="white" transform="translate(0.0691223 0.404053)"/>
</clipPath>
</defs>
</svg>
