<svg width="26" height="27" viewBox="0 0 26 27" fill="none" xmlns="http://www.w3.org/2000/svg">
<g clip-path="url(#clip0_2_4034)">
<path d="M12.7355 26.114C12.7355 26.114 22.2875 17.0619 22.2875 10.194C22.2875 7.66071 21.2811 5.23113 19.4898 3.43979C17.6985 1.64845 15.2689 0.64209 12.7355 0.64209C10.2022 0.64209 7.77263 1.64845 5.9813 3.43979C4.18996 5.23113 3.18359 7.66071 3.18359 10.194C3.18359 17.0619 12.7355 26.114 12.7355 26.114ZM12.7355 14.97C11.4689 14.97 10.2541 14.4668 9.35842 13.5712C8.46275 12.6755 7.95957 11.4607 7.95957 10.194C7.95957 8.92737 8.46275 7.71259 9.35842 6.81692C10.2541 5.92125 11.4689 5.41807 12.7355 5.41807C14.0022 5.41807 15.217 5.92125 16.1127 6.81692C17.0083 7.71259 17.5115 8.92737 17.5115 10.194C17.5115 11.4607 17.0083 12.6755 16.1127 13.5712C15.217 14.4668 14.0022 14.97 12.7355 14.97Z" fill="#2F69FF" fill-opacity="0.7"/>
</g>
<defs>
<clipPath id="clip0_2_4034">
<rect width="25.4719" height="25.4719" fill="white" transform="translate(0 0.64209)"/>
</clipPath>
</defs>
</svg>
