<svg width="27" height="28" fill="none" xmlns="http://www.w3.org/2000/svg"><g clip-path="url(#clip0_154_60)" fill="#000"><path fill-rule="evenodd" clip-rule="evenodd" d="M10.969 20.62a9.28 9.28 0 008.575-12.834 9.281 9.281 0 10-8.575 12.833zm10.969-9.282a10.969 10.969 0 11-21.938 0 10.969 10.969 0 0121.938 0z"/><path d="M17.456 20.184c.05.068.104.132.165.194l6.497 6.497a1.688 1.688 0 002.388-2.386l-6.497-6.497a1.711 1.711 0 00-.194-.169c-.662.903-1.458 1.7-2.36 2.363v-.002z"/><path fill-rule="evenodd" clip-rule="evenodd" d="M10.969 5.432a.844.844 0 01.844.843v4.22h4.218a.844.844 0 010 1.687h-4.218V16.4a.844.844 0 11-1.688 0v-4.218H5.906a.844.844 0 010-1.688h4.219V6.275a.844.844 0 01.844-.843z"/></g><defs><clipPath id="clip0_154_60"><path fill="#fff" transform="translate(0 .37)" d="M0 0h27v27H0z"/></clipPath></defs></svg>