<svg width="28" height="28" fill="none" xmlns="http://www.w3.org/2000/svg"><path d="M14.848 5.382A1.153 1.153 0 0014 5c-.318 0-.623.137-.848.382l-7.976 8.673a.703.703 0 000 .924.56.56 0 00.655.142.599.599 0 00.194-.142l.776-.844v6.908c0 .519.19 1.017.527 1.384A1.73 1.73 0 008.6 23h10.8a1.73 1.73 0 001.272-.573c.338-.367.527-.865.527-1.384v-6.908l.775.844a.577.577 0 00.425.192.58.58 0 00.425-.192.684.684 0 00.176-.462.684.684 0 00-.176-.462L20 10.985V6.687a.683.683 0 00-.175-.461.577.577 0 00-.425-.191h-1.2a.576.576 0 00-.424.19.683.683 0 00-.175.462v1.688l-2.752-2.993zM20 12.83v8.213a.683.683 0 01-.176.46.577.577 0 01-.425.192H8.6a.577.577 0 01-.424-.191.683.683 0 01-.175-.462V12.83L14 6.305l6 6.525z" fill="gray"/></svg>