<svg viewBox="0 0 32 32" xmlns="http://www.w3.org/2000/svg"><path d="M30 13.75h-2.75V5.999c0-.345-.14-.657-.365-.883l-4-4A1.248 1.248 0 0022 .75H5c-.69 0-1.25.56-1.25 1.25v11.75H2c-.69 0-1.25.56-1.25 1.25v9a1.25 1.25 0 002.5 0v-7.75h25.5V24a1.25 1.25 0 002.5 0v-9c0-.69-.56-1.25-1.25-1.25zM6.25 3.25h15.232l3.268 3.268v7.232H6.25zM26 20.75H6c-.69 0-1.25.56-1.25 1.25v8c0 .69.56 1.25 1.25 1.25h20A1.252 1.252 0 0027.25 30v-8A1.252 1.252 0 0026 20.75zm-1.25 8H7.25v-5.5h17.5zm2.129-11.13a1.26 1.26 0 00-1.368-.277l.008-.003a.96.96 0 00-.399.279l-.001.001a1.133 1.133 0 00-.277.392l-.003.007a1.358 1.358 0 00-.1.479v.002c.002.346.147.657.378.878a1.25 1.25 0 001.76 0c.233-.222.378-.533.381-.878a1.392 1.392 0 00-.103-.49l.003.009a1.112 1.112 0 00-.28-.399l-.001-.001z"/></svg>