<svg viewBox="0 0 49 49" xmlns="http://www.w3.org/2000/svg" xmlns:xlink="http://www.w3.org/1999/xlink"><style>:root&gt;svg{display:none}:root&gt;svg:target{display:block}</style><svg fill="none" viewBox="0 0 16 17" id="include--chevron-down" xmlns="http://www.w3.org/2000/svg"><path fill-rule="evenodd" clip-rule="evenodd" d="M1.602 5.237a.486.486 0 01.689 0l5.493 5.494 5.493-5.494a.486.486 0 11.688.689l-5.837 5.837a.486.486 0 01-.689 0L1.602 5.926a.486.486 0 010-.689z" fill="#000" fill-opacity=".3"/></svg><svg fill="none" viewBox="0 0 18 19" id="include--chevron-down-phone" xmlns="http://www.w3.org/2000/svg"><path fill-rule="evenodd" clip-rule="evenodd" d="M1.878 5.867a.534.534 0 01.757 0l6.035 6.036 6.036-6.037a.535.535 0 01.757.757l-6.414 6.414a.537.537 0 01-.757 0L1.878 6.623a.534.534 0 010-.756z" fill="#2F69FF"/></svg><svg fill="none" viewBox="0 0 28 28" id="include--home" xmlns="http://www.w3.org/2000/svg"><path d="M14.848 5.382A1.153 1.153 0 0014 5c-.318 0-.623.137-.848.382l-7.976 8.673a.703.703 0 000 .924.56.56 0 00.655.142.599.599 0 00.194-.142l.776-.844v6.908c0 .519.19 1.017.527 1.384A1.73 1.73 0 008.6 23h10.8a1.73 1.73 0 001.272-.573c.338-.367.527-.865.527-1.384v-6.908l.775.844a.577.577 0 00.425.192.58.58 0 00.425-.192.684.684 0 00.176-.462.684.684 0 00-.176-.462L20 10.985V6.687a.683.683 0 00-.175-.461.577.577 0 00-.425-.191h-1.2a.576.576 0 00-.424.19.683.683 0 00-.175.462v1.688l-2.752-2.993zM20 12.83v8.213a.683.683 0 01-.176.46.577.577 0 01-.425.192H8.6a.577.577 0 01-.424-.191.683.683 0 01-.175-.462V12.83L14 6.305l6 6.525z" fill="gray"/></svg><svg fill="none" viewBox="0 0 43 43" id="include--slide-next-arrow" xmlns="http://www.w3.org/2000/svg"><ellipse cx="21.41" cy="21.5" rx="21.41" ry="21.5" fill="#2F69FF" fill-opacity=".1"/><path d="M18.504 27.336l5.811-5.836-5.81-5.836" stroke="#fff" stroke-width="1.72" stroke-linecap="round" stroke-linejoin="round"/></svg><svg fill="none" viewBox="0 0 43 43" id="include--slide-prev-arrow" xmlns="http://www.w3.org/2000/svg"><ellipse cx="21.41" cy="21.5" rx="21.41" ry="21.5" transform="matrix(-1 0 0 1 42.82 0)" fill="#2F69FF" fill-opacity=".1"/><path d="M24.315 27.336l-5.81-5.836 5.81-5.836" stroke="#fff" stroke-width="1.72" stroke-linecap="round" stroke-linejoin="round"/></svg><svg fill="none" viewBox="0 0 49 49" id="include--three-dots" xmlns="http://www.w3.org/2000/svg"><path d="M9.188 29.094a4.594 4.594 0 110-9.188 4.594 4.594 0 010 9.188zm15.312 0a4.594 4.594 0 110-9.188 4.594 4.594 0 010 9.188zm15.313 0a4.594 4.594 0 110-9.188 4.594 4.594 0 010 9.188z" fill="#fff"/></svg><svg fill="none" viewBox="0 0 29 29" id="include--user" xmlns="http://www.w3.org/2000/svg"><path d="M14.5 14.5a7.25 7.25 0 100-14.5 7.25 7.25 0 000 14.5zm4.833-7.25a4.833 4.833 0 11-9.667 0 4.833 4.833 0 019.667 0zM29 26.583C29 29 26.583 29 26.583 29H2.417S0 29 0 26.583c0-2.416 2.417-9.666 14.5-9.666S29 24.167 29 26.583zm-2.417-.01c-.002-.594-.372-2.382-2.01-4.02-1.576-1.576-4.541-3.22-10.073-3.22-5.534 0-8.497 1.644-10.073 3.22-1.638 1.638-2.005 3.426-2.01 4.02h24.166z" fill="#000" fill-opacity=".6"/></svg></svg>