<svg width="27" height="28" viewBox="0 0 27 28" fill="none" xmlns="http://www.w3.org/2000/svg">
<g clip-path="url(#clip0_154_60)">
<path fill-rule="evenodd" clip-rule="evenodd" d="M10.9688 20.6191C12.1876 20.6191 13.3945 20.3791 14.5205 19.9126C15.6466 19.4462 16.6697 18.7626 17.5316 17.9007C18.3934 17.0389 19.0771 16.0157 19.5435 14.8897C20.0099 13.7636 20.25 12.5567 20.25 11.3379C20.25 10.1191 20.0099 8.91216 19.5435 7.78611C19.0771 6.66006 18.3934 5.6369 17.5316 4.77506C16.6697 3.91321 15.6466 3.22956 14.5205 2.76313C13.3945 2.29671 12.1876 2.05664 10.9688 2.05664C8.50721 2.05664 6.14649 3.03448 4.40592 4.77506C2.66534 6.51563 1.6875 8.87635 1.6875 11.3379C1.6875 13.7994 2.66534 16.1602 4.40592 17.9007C6.14649 19.6413 8.50721 20.6191 10.9688 20.6191ZM21.9375 11.3379C21.9375 14.247 20.7819 17.0369 18.7248 19.094C16.6678 21.151 13.8778 22.3066 10.9688 22.3066C8.05966 22.3066 5.26971 21.151 3.21267 19.094C1.15563 17.0369 0 14.247 0 11.3379C0 8.4288 1.15563 5.63885 3.21267 3.58181C5.26971 1.52477 8.05966 0.369141 10.9688 0.369141C13.8778 0.369141 16.6678 1.52477 18.7248 3.58181C20.7819 5.63885 21.9375 8.4288 21.9375 11.3379Z" fill="black"/>
<path d="M17.4556 20.1841C17.5062 20.2516 17.5602 20.3157 17.6209 20.3781L24.1178 26.875C24.4342 27.1916 24.8635 27.3696 25.3111 27.3698C25.7588 27.3699 26.1881 27.1923 26.5048 26.8758C26.8214 26.5594 26.9994 26.1302 26.9996 25.6825C26.9997 25.2349 26.822 24.8055 26.5056 24.4889L20.0088 17.992C19.9484 17.9309 19.8835 17.8745 19.8147 17.8232C19.1527 18.7259 18.3572 19.5225 17.4556 20.1857V20.1841Z" fill="black"/>
<path fill-rule="evenodd" clip-rule="evenodd" d="M10.9688 5.43164C11.1925 5.43164 11.4071 5.52054 11.5654 5.67877C11.7236 5.837 11.8125 6.05161 11.8125 6.27539V10.4941H16.0312C16.255 10.4941 16.4696 10.583 16.6279 10.7413C16.7861 10.8995 16.875 11.1141 16.875 11.3379C16.875 11.5617 16.7861 11.7763 16.6279 11.9345C16.4696 12.0927 16.255 12.1816 16.0312 12.1816H11.8125V16.4004C11.8125 16.6242 11.7236 16.8388 11.5654 16.997C11.4071 17.1552 11.1925 17.2441 10.9688 17.2441C10.745 17.2441 10.5304 17.1552 10.3721 16.997C10.2139 16.8388 10.125 16.6242 10.125 16.4004V12.1816H5.90625C5.68247 12.1816 5.46786 12.0927 5.30963 11.9345C5.1514 11.7763 5.0625 11.5617 5.0625 11.3379C5.0625 11.1141 5.1514 10.8995 5.30963 10.7413C5.46786 10.583 5.68247 10.4941 5.90625 10.4941H10.125V6.27539C10.125 6.05161 10.2139 5.837 10.3721 5.67877C10.5304 5.52054 10.745 5.43164 10.9688 5.43164Z" fill="black"/>
</g>
<defs>
<clipPath id="clip0_154_60">
<rect width="27" height="27" fill="white" transform="translate(0 0.369141)"/>
</clipPath>
</defs>
</svg>
