<svg width="22" height="22" viewBox="0 0 22 22" fill="none" xmlns="http://www.w3.org/2000/svg">
<path fill-rule="evenodd" clip-rule="evenodd" d="M2.16577 11.3922C2.16577 11.2174 2.23522 11.0497 2.35885 10.9261C2.48248 10.8024 2.65016 10.733 2.825 10.733H18.3737L14.2245 6.58506C14.1632 6.52377 14.1146 6.451 14.0814 6.37092C14.0483 6.29083 14.0312 6.205 14.0312 6.11832C14.0312 6.03164 14.0483 5.94581 14.0814 5.86572C14.1146 5.78564 14.1632 5.71287 14.2245 5.65158C14.2858 5.59029 14.3586 5.54167 14.4387 5.5085C14.5187 5.47533 14.6046 5.45825 14.6912 5.45825C14.7779 5.45825 14.8638 5.47533 14.9438 5.5085C15.0239 5.54167 15.0967 5.59029 15.158 5.65158L20.4319 10.9255C20.4933 10.9867 20.542 11.0595 20.5752 11.1395C20.6084 11.2196 20.6255 11.3055 20.6255 11.3922C20.6255 11.4789 20.6084 11.5648 20.5752 11.6449C20.542 11.725 20.4933 11.7977 20.4319 11.8589L15.158 17.1328C15.0967 17.1941 15.0239 17.2427 14.9438 17.2759C14.8638 17.3091 14.7779 17.3262 14.6912 17.3262C14.6046 17.3262 14.5187 17.3091 14.4387 17.2759C14.3586 17.2427 14.2858 17.1941 14.2245 17.1328C14.1632 17.0715 14.1146 16.9988 14.0814 16.9187C14.0483 16.8386 14.0312 16.7528 14.0312 16.6661C14.0312 16.5794 14.0483 16.4936 14.0814 16.4135C14.1146 16.3334 14.1632 16.2606 14.2245 16.1994L18.3737 12.0514H2.825C2.65016 12.0514 2.48248 11.982 2.35885 11.8584C2.23522 11.7347 2.16577 11.567 2.16577 11.3922Z" fill="#2F69FF"/>
</svg>
