<svg width="48" height="48" viewBox="0 0 48 48" fill="none" xmlns="http://www.w3.org/2000/svg">
<g id="chevron-down 3">
<path id="Vector" fill-rule="evenodd" clip-rule="evenodd" d="M4.93775 13.9378C5.07709 13.7981 5.24262 13.6872 5.42485 13.6116C5.60709 13.536 5.80245 13.4971 5.99975 13.4971C6.19705 13.4971 6.39242 13.536 6.57465 13.6116C6.75689 13.6872 6.92242 13.7981 7.06175 13.9378L23.9998 30.8788L40.9378 13.9378C41.0772 13.7983 41.2428 13.6877 41.425 13.6122C41.6072 13.5367 41.8025 13.4979 41.9998 13.4979C42.197 13.4979 42.3923 13.5367 42.5745 13.6122C42.7567 13.6877 42.9223 13.7983 43.0618 13.9378C43.2012 14.0772 43.3118 14.2428 43.3873 14.425C43.4628 14.6072 43.5016 14.8025 43.5016 14.9998C43.5016 15.197 43.4628 15.3923 43.3873 15.5745C43.3118 15.7567 43.2012 15.9223 43.0618 16.0618L25.0618 34.0618C24.9224 34.2014 24.7569 34.3123 24.5746 34.3879C24.3924 34.4635 24.1971 34.5024 23.9998 34.5024C23.8024 34.5024 23.6071 34.4635 23.4249 34.3879C23.2426 34.3123 23.0771 34.2014 22.9378 34.0618L4.93775 16.0618C4.79806 15.9224 4.68723 15.7569 4.61161 15.5747C4.53599 15.3924 4.49707 15.1971 4.49707 14.9998C4.49707 14.8024 4.53599 14.6071 4.61161 14.4249C4.68723 14.2426 4.79806 14.0771 4.93775 13.9378Z" fill="#2F69FF"/>
<path id="Vector_2" fill-rule="evenodd" clip-rule="evenodd" d="M4.93873 13.9378C5.07807 13.7981 5.24359 13.6872 5.42583 13.6116C5.60806 13.536 5.80343 13.4971 6.00073 13.4971C6.19803 13.4971 6.39339 13.536 6.57563 13.6116C6.75786 13.6872 6.92339 13.7981 7.06273 13.9378L24.0007 30.8788L40.9387 13.9378C41.0782 13.7983 41.2438 13.6877 41.426 13.6122C41.6082 13.5367 41.8035 13.4979 42.0007 13.4979C42.198 13.4979 42.3933 13.5367 42.5755 13.6122C42.7577 13.6877 42.9233 13.7983 43.0627 13.9378C43.2022 14.0772 43.3128 14.2428 43.3883 14.425C43.4638 14.6072 43.5026 14.8025 43.5026 14.9998C43.5026 15.197 43.4638 15.3923 43.3883 15.5745C43.3128 15.7567 43.2022 15.9223 43.0627 16.0618L25.0627 34.0618C24.9234 34.2014 24.7579 34.3123 24.5756 34.3879C24.3934 34.4635 24.198 34.5024 24.0007 34.5024C23.8034 34.5024 23.6081 34.4635 23.4258 34.3879C23.2436 34.3123 23.0781 34.2014 22.9387 34.0618L4.93873 16.0618C4.79904 15.9224 4.68821 15.7569 4.61259 15.5747C4.53697 15.3924 4.49805 15.1971 4.49805 14.9998C4.49805 14.8024 4.53697 14.6071 4.61259 14.4249C4.68821 14.2426 4.79904 14.0771 4.93873 13.9378Z" fill="#2D2D2D"/>
</g>
</svg>
