<svg width="17" height="17" viewBox="0 0 17 17" fill="none" xmlns="http://www.w3.org/2000/svg">
<g clip-path="url(#clip0_631_59)">
<path d="M8.33651 3.73478C8.33651 3.60365 8.28442 3.47789 8.1917 3.38517C8.09897 3.29245 7.97321 3.24036 7.84208 3.24036C7.71095 3.24036 7.58519 3.29245 7.49247 3.38517C7.39975 3.47789 7.34766 3.60365 7.34766 3.73478V9.17348C7.34768 9.26063 7.37075 9.34622 7.41451 9.42159C7.45827 9.49696 7.52117 9.55942 7.59685 9.60264L11.0578 11.5803C11.1714 11.6417 11.3045 11.6563 11.4286 11.6208C11.5528 11.5854 11.6581 11.5028 11.7222 11.3907C11.7862 11.2786 11.8039 11.1459 11.7714 11.0209C11.7389 10.896 11.6589 10.7887 11.5483 10.722L8.33651 8.88671V3.73478Z" fill="#808080"/>
<path d="M8.33661 16.0953C10.4347 16.0953 12.4468 15.2619 13.9304 13.7783C15.414 12.2947 16.2474 10.2826 16.2474 8.18451C16.2474 6.08643 15.414 4.07428 13.9304 2.59071C12.4468 1.10714 10.4347 0.273682 8.33661 0.273682C6.23853 0.273682 4.22638 1.10714 2.74281 2.59071C1.25924 4.07428 0.425781 6.08643 0.425781 8.18451C0.425781 10.2826 1.25924 12.2947 2.74281 13.7783C4.22638 15.2619 6.23853 16.0953 8.33661 16.0953ZM15.2586 8.18451C15.2586 10.0203 14.5293 11.781 13.2312 13.0791C11.9331 14.3772 10.1724 15.1065 8.33661 15.1065C6.50079 15.1065 4.74016 14.3772 3.44203 13.0791C2.14391 11.781 1.41464 10.0203 1.41464 8.18451C1.41464 6.34869 2.14391 4.58806 3.44203 3.28994C4.74016 1.99181 6.50079 1.26254 8.33661 1.26254C10.1724 1.26254 11.9331 1.99181 13.2312 3.28994C14.5293 4.58806 15.2586 6.34869 15.2586 8.18451Z" fill="#808080"/>
</g>
<defs>
<clipPath id="clip0_631_59">
<rect width="15.8217" height="15.8217" fill="white" transform="translate(0.425781 0.273682)"/>
</clipPath>
</defs>
</svg>
