<svg width="41" height="11" viewBox="0 0 41 11" fill="none" xmlns="http://www.w3.org/2000/svg">
<path d="M5.1875 10.0938C3.96916 10.0937 2.80072 9.60977 1.93923 8.74827C1.07773 7.88678 0.59375 6.71834 0.59375 5.5C0.59375 4.28166 1.07773 3.11322 1.93923 2.25173C2.80072 1.39023 3.96916 0.90625 5.1875 0.90625C6.40584 0.90625 7.57428 1.39023 8.43577 2.25173C9.29727 3.11322 9.78125 4.28166 9.78125 5.5C9.78125 6.71834 9.29727 7.88678 8.43577 8.74827C7.57428 9.60977 6.40584 10.0937 5.1875 10.0938ZM20.5 10.0938C19.2817 10.0937 18.1132 9.60977 17.2517 8.74827C16.3902 7.88678 15.9062 6.71834 15.9062 5.5C15.9062 4.28166 16.3902 3.11322 17.2517 2.25173C18.1132 1.39023 19.2817 0.90625 20.5 0.90625C21.7183 0.90625 22.8868 1.39023 23.7483 2.25173C24.6098 3.11322 25.0937 4.28166 25.0938 5.5C25.0937 6.71834 24.6098 7.88678 23.7483 8.74827C22.8868 9.60977 21.7183 10.0937 20.5 10.0938ZM35.8125 10.0938C34.5942 10.0937 33.4257 9.60977 32.5642 8.74827C31.7027 7.88678 31.2188 6.71834 31.2188 5.5C31.2188 4.28166 31.7027 3.11322 32.5642 2.25173C33.4257 1.39023 34.5942 0.90625 35.8125 0.90625C37.0308 0.90625 38.1993 1.39023 39.0608 2.25173C39.9223 3.11322 40.4062 4.28166 40.4062 5.5C40.4062 6.71834 39.9223 7.88678 39.0608 8.74827C38.1993 9.60977 37.0308 10.0937 35.8125 10.0938Z" fill="white"/>
</svg>
