<svg width="18" height="19" viewBox="0 0 18 19" fill="none" xmlns="http://www.w3.org/2000/svg">
<path fill-rule="evenodd" clip-rule="evenodd" d="M1.87784 5.8665C1.92749 5.81673 1.98647 5.77723 2.05141 5.75029C2.11635 5.72334 2.18596 5.70947 2.25627 5.70947C2.32657 5.70947 2.39618 5.72334 2.46112 5.75029C2.52606 5.77723 2.58504 5.81673 2.63469 5.8665L8.67026 11.9031L14.7058 5.8665C14.7555 5.81681 14.8145 5.77739 14.8795 5.75049C14.9444 5.7236 15.014 5.70975 15.0843 5.70975C15.1545 5.70975 15.2241 5.7236 15.2891 5.75049C15.354 5.77739 15.413 5.81681 15.4627 5.8665C15.5124 5.9162 15.5518 5.97519 15.5787 6.04012C15.6056 6.10506 15.6194 6.17465 15.6194 6.24493C15.6194 6.31521 15.6056 6.3848 15.5787 6.44973C15.5518 6.51466 15.5124 6.57366 15.4627 6.62335L9.04869 13.0374C8.99904 13.0871 8.94005 13.1266 8.87512 13.1536C8.81018 13.1805 8.74057 13.1944 8.67026 13.1944C8.59996 13.1944 8.53034 13.1805 8.46541 13.1536C8.40047 13.1266 8.34149 13.0871 8.29184 13.0374L1.87784 6.62335C1.82806 6.5737 1.78857 6.51472 1.76163 6.44978C1.73468 6.38485 1.72081 6.31523 1.72081 6.24493C1.72081 6.17462 1.73468 6.10501 1.76163 6.04007C1.78857 5.97513 1.82806 5.91615 1.87784 5.8665Z" fill="#2F69FF"/>
</svg>
