<svg width="16" height="17" viewBox="0 0 16 17" fill="none" xmlns="http://www.w3.org/2000/svg">
<path fill-rule="evenodd" clip-rule="evenodd" d="M1.6019 5.23715C1.64708 5.19185 1.70076 5.15591 1.75986 5.13138C1.81896 5.10686 1.88231 5.09424 1.9463 5.09424C2.01028 5.09424 2.07364 5.10686 2.13273 5.13138C2.19183 5.15591 2.24551 5.19185 2.2907 5.23715L7.7836 10.731L13.2765 5.23715C13.3217 5.19192 13.3754 5.15604 13.4345 5.13157C13.4936 5.10709 13.5569 5.09449 13.6209 5.09449C13.6849 5.09449 13.7482 5.10709 13.8073 5.13157C13.8664 5.15604 13.9201 5.19192 13.9653 5.23715C14.0105 5.28238 14.0464 5.33607 14.0709 5.39516C14.0954 5.45425 14.108 5.51759 14.108 5.58155C14.108 5.64551 14.0954 5.70885 14.0709 5.76794C14.0464 5.82703 14.0105 5.88072 13.9653 5.92595L8.128 11.7633C8.08281 11.8086 8.02914 11.8445 7.97004 11.869C7.91094 11.8935 7.84758 11.9062 7.7836 11.9062C7.71962 11.9062 7.65626 11.8935 7.59716 11.869C7.53807 11.8445 7.48439 11.8086 7.4392 11.7633L1.6019 5.92595C1.55659 5.88076 1.52065 5.82709 1.49613 5.76799C1.47161 5.70889 1.45898 5.64553 1.45898 5.58155C1.45898 5.51757 1.47161 5.45421 1.49613 5.39511C1.52065 5.33601 1.55659 5.28233 1.6019 5.23715Z" fill="black" fill-opacity="0.3"/>
</svg>
