<svg width="28" height="28" viewBox="0 0 28 28" fill="none" xmlns="http://www.w3.org/2000/svg">
<path d="M14.8483 5.3821C14.6233 5.13744 14.3182 5 14 5C13.6818 5 13.3767 5.13744 13.1517 5.3821L5.17594 14.0553C5.12016 14.116 5.07591 14.188 5.04573 14.2673C5.01554 14.3465 5 14.4315 5 14.5173C5 14.6031 5.01554 14.6881 5.04573 14.7673C5.07591 14.8466 5.12016 14.9186 5.17594 14.9793C5.2886 15.1018 5.44139 15.1706 5.60071 15.1706C5.67959 15.1706 5.75771 15.1537 5.83059 15.1209C5.90347 15.0881 5.96969 15.04 6.02547 14.9793L6.80061 14.1349V21.0425C6.80061 21.5616 6.99023 22.0595 7.32777 22.4266C7.66531 22.7938 8.12311 23 8.60045 23H19.3995C19.8769 23 20.3347 22.7938 20.6722 22.4266C21.0098 22.0595 21.1994 21.5616 21.1994 21.0425V14.1349L21.9745 14.9793C22.0872 15.1018 22.24 15.1706 22.3993 15.1706C22.5586 15.1706 22.7114 15.1018 22.8241 14.9793C22.9367 14.8568 23 14.6906 23 14.5173C23 14.344 22.9367 14.1778 22.8241 14.0553L19.9995 10.9846V6.68713C19.9995 6.51407 19.9363 6.3481 19.8238 6.22573C19.7113 6.10336 19.5587 6.03461 19.3995 6.03461H18.1996C18.0405 6.03461 17.8879 6.10336 17.7754 6.22573C17.6629 6.3481 17.5997 6.51407 17.5997 6.68713V8.37453L14.8483 5.3821ZM19.9995 12.8299V21.0425C19.9995 21.2155 19.9363 21.3815 19.8238 21.5039C19.7113 21.6262 19.5587 21.695 19.3995 21.695H8.60045C8.44134 21.695 8.28874 21.6262 8.17623 21.5039C8.06371 21.3815 8.00051 21.2155 8.00051 21.0425V12.8299L14 6.30475L19.9995 12.8299Z" fill="#808080"/>
</svg>
