<svg width="49" height="49" viewBox="0 0 49 49" fill="none" xmlns="http://www.w3.org/2000/svg">
<path d="M9.1875 29.0938C7.96916 29.0938 6.80072 28.6098 5.93923 27.7483C5.07773 26.8868 4.59375 25.7183 4.59375 24.5C4.59375 23.2817 5.07773 22.1132 5.93923 21.2517C6.80072 20.3902 7.96916 19.9063 9.1875 19.9062C10.4058 19.9062 11.5743 20.3902 12.4358 21.2517C13.2973 22.1132 13.7812 23.2817 13.7812 24.5C13.7812 25.7183 13.2973 26.8868 12.4358 27.7483C11.5743 28.6098 10.4058 29.0938 9.1875 29.0938ZM24.5 29.0938C23.2817 29.0938 22.1132 28.6098 21.2517 27.7483C20.3902 26.8868 19.9062 25.7183 19.9062 24.5C19.9062 23.2817 20.3902 22.1132 21.2517 21.2517C22.1132 20.3902 23.2817 19.9063 24.5 19.9062C25.7183 19.9062 26.8868 20.3902 27.7483 21.2517C28.6098 22.1132 29.0938 23.2817 29.0938 24.5C29.0938 25.7183 28.6098 26.8868 27.7483 27.7483C26.8868 28.6098 25.7183 29.0938 24.5 29.0938ZM39.8125 29.0938C38.5942 29.0938 37.4257 28.6098 36.5642 27.7483C35.7027 26.8868 35.2188 25.7183 35.2188 24.5C35.2188 23.2817 35.7027 22.1132 36.5642 21.2517C37.4257 20.3902 38.5942 19.9063 39.8125 19.9062C41.0308 19.9062 42.1993 20.3902 43.0608 21.2517C43.9223 22.1132 44.4062 23.2817 44.4062 24.5C44.4062 25.7183 43.9223 26.8868 43.0608 27.7483C42.1993 28.6098 41.0308 29.0938 39.8125 29.0938Z" fill="white"/>
</svg>
