<svg width="50" height="50" fill="none" xmlns="http://www.w3.org/2000/svg"><g clip-path="url(#clip0_2_4046)"><path d="M.044 8.338a1.542 1.542 0 011.542-1.542h4.627a1.542 1.542 0 011.496 1.169l1.249 5h35.81a1.544 1.544 0 011.496 1.915l-4.626 18.507a1.542 1.542 0 01-1.496 1.169h-27.76a1.542 1.542 0 01-1.496-1.169L5.01 9.88H1.586A1.542 1.542 0 01.044 8.338zm9.685 7.711l1.542 6.17h4.195v-6.17H9.73zm8.822 0v6.17h6.169v-6.17h-6.17zm9.253 0v6.17h6.169v-6.17h-6.169zm9.253 0v6.17h4.195l1.542-6.17h-5.737zm3.424 9.254h-3.424v6.168h1.882l1.542-6.168zm-6.508 0h-6.169v6.168h6.169v-6.168zm-9.253 0h-6.17v6.168h6.17v-6.168zm-9.254 0h-3.423l1.542 6.168h1.881v-6.168zm0 15.422a3.085 3.085 0 100 6.169 3.085 3.085 0 000-6.17zm-6.169 3.084a6.169 6.169 0 1112.338 0 6.169 6.169 0 01-12.338 0zm27.76-3.084a3.085 3.085 0 100 6.17 3.085 3.085 0 000-6.17zm-6.169 3.084a6.169 6.169 0 1112.338 0 6.169 6.169 0 01-12.337 0z" fill="#000"/></g><defs><clipPath id="clip0_2_4046"><path fill="#fff" transform="translate(.044 .626)" d="M0 0h49.351v49.351H0z"/></clipPath></defs></svg>