<svg width="18" height="18" fill="none" xmlns="http://www.w3.org/2000/svg"><g clip-path="url(#clip0_631_309)"><path d="M.123 4.218A2.145 2.145 0 012.214 2.55h12.872a2.145 2.145 0 012.092 1.668L8.65 9.428.123 4.217zM.069 5.442v7.62l6.225-3.816L.069 5.442zm7.252 4.434l-7.047 4.32a2.145 2.145 0 001.94 1.225h12.872a2.146 2.146 0 001.94-1.227l-7.048-4.32-1.328.813-1.329-.811zm3.686-.629l6.224 3.815v-7.62l-6.224 3.804v.001z" fill="#fff"/></g><defs><clipPath id="clip0_631_309"><path fill="#fff" transform="translate(.07 .404)" d="M0 0h17.162v17.162H0z"/></clipPath></defs></svg>